<?xml version="1.0" encoding="utf-8"?>
<!-- Generator: Adobe Illustrator 19.2.1, SVG Export Plug-In . SVG Version: 6.00 Build 0)  -->
<svg version="1.1" id="Capa_1" xmlns="http://www.w3.org/2000/svg" xmlns:xlink="http://www.w3.org/1999/xlink" x="0px" y="0px"
	 viewBox="0 0 190 135" style="enable-background:new 0 0 190 135;" xml:space="preserve">
<style type="text/css">
	.st0{opacity:0.7;}
	.st1{fill:none;stroke:#5B5B5F;stroke-width:4;stroke-linecap:round;stroke-linejoin:round;}
	.st2{fill:none;stroke:#000000;stroke-width:4;stroke-linecap:round;stroke-linejoin:round;}
</style>
<title>our-offer-icon</title>
<g class="st0">
	<polyline class="st1" points="19.4,97.3 12.6,103.2 92.9,128.5 143,82.4 134,79.6 	"/>
	<polyline class="st1" points="34.9,70.9 10,92.3 90.4,117.6 140.4,71.6 62,46.9 42.8,63.9 	"/>
	<polygon class="st1" points="71.3,30.3 103.2,40.3 128.3,17.3 97.3,7.5 	"/>
	<polyline class="st1" points="73.2,38.1 105.2,48.2 130.2,25.1 	"/>
	<polygon class="st2" points="34.4,70.1 41.4,90.9 43.4,69 36.9,14.9 27.9,15.9 	"/>
	<line class="st2" x1="112.6" y1="73.7" x2="65" y2="58.7"/>
	<line class="st2" x1="104.9" y1="80.8" x2="57.4" y2="65.9"/>
	<line class="st2" x1="96.5" y1="88.6" x2="48.9" y2="73.7"/>
	<polyline class="st2" points="56.4,85.7 88.2,95.7 80.5,103 41.5,90.8 	"/>
	<polygon class="st2" points="126.7,58.3 154.7,31.9 180,75.1 	"/>
	<polygon class="st1" points="143.1,55.1 153.3,45.5 162.5,61.2 	"/>
	<polygon class="st2" points="87.9,26.5 100.2,30.4 111.7,20.3 99.2,16.4 	"/>
</g>
</svg>
